<svg width="450" height="500" viewBox="0 0 450 500" xmlns="http://www.w3.org/2000/svg">
  <defs>
    <linearGradient id="header_grad" x1="0%" y1="0%" x2="0%" y2="100%">
      <stop offset="0%" style="stop-color:#30363d;stop-opacity:1" />
      <stop offset="100%" style="stop-color:#161b22;stop-opacity:1" />
    </linearGradient>
    <filter id="shadow" x="-20%" y="-20%" width="140%" height="140%">
      <feGaussianBlur in="SourceAlpha" stdDeviation="5" />
      <feOffset dx="0" dy="5" result="offsetblur" />
      <feComponentTransfer>
        <feFuncA type="linear" slope="0.5" />
      </feComponentTransfer>
      <feMerge>
        <feMergeNode />
        <feMergeNode in="SourceGraphic" />
      </feMerge>
    </filter>
  </defs>

  <rect x="10" y="10" width="430" height="480" rx="12" fill="#0d1117" filter="url(#shadow)" />
  
  <path d="M 10 22 Q 10 10 22 10 L 428 10 Q 440 10 440 22 L 440 50 L 10 50 Z" fill="url(#header_grad)" />
  
  <circle cx="35" cy="30" r="6" fill="#ff5f56" />
  <circle cx="55" cy="30" r="6" fill="#ffbd2e" />
  <circle cx="75" cy="30" r="6" fill="#27c93f" />

  <path d="M 100 15 L 210 15 L 220 50 L 90 50 Z" fill="#0d1117" />
  <text x="130" y="35" font-family="monospace" font-size="13" fill="#c9d1d9">About.ts</text>
  <circle cx="118" cy="30" r="3.5" fill="#3178c6" />

  <g font-family="monospace" font-size="14" transform="translate(35, 95)">
    <text y="0">
      <tspan fill="#ff79c6">interface</tspan> <tspan fill="#8be9fd">Dev</tspan> {
    </text>
    <text y="32">
      <tspan fill="#f8f8f2">  status: string;</tspan>
    </text>
    <text y="64">
      <tspan fill="#f8f8f2">  location: string;</tspan>
    </text>
    <text y="96">
      <tspan fill="#f8f8f2">  expertise: string[];</tspan>
    </text>
    <text y="128">
      <tspan fill="#f8f8f2">}</tspan>
    </text>
    
    <text y="170">
      <tspan fill="#ff79c6">const</tspan> <tspan fill="#8be9fd">Geric</tspan>: <tspan fill="#8be9fd">Dev</tspan> = {
    </text>
    <text y="202">
      <tspan fill="#f8f8f2">  status: </tspan><tspan fill="#f1fa8c">"Dreaming..."</tspan>,
    </text>
    <text y="234">
      <tspan fill="#f8f8f2">  location: </tspan><tspan fill="#f1fa8c">"PH/MNL"</tspan>,
    </text>
    <text y="266">
      <tspan fill="#f8f8f2">  expertise: [</tspan>
    </text>
    <text y="298">
      <tspan fill="#f1fa8c">    "JS"</tspan>, <tspan fill="#f1fa8c">"DB"</tspan>, <tspan fill="#f1fa8c">"AI"</tspan>
    </text>
    <text y="330">
      <tspan fill="#f8f8f2">  ]</tspan>
    </text>
    <text y="362">
      <tspan fill="#f8f8f2">};</tspan>
    </text>
  </g>
</svg>
